<svg width="25" height="29" xmlns="http://www.w3.org/2000/svg" xmlns:xlink="http://www.w3.org/1999/xlink" xml:space="preserve" overflow="hidden"><defs><clipPath id="clip0"><rect x="55" y="137" width="25" height="29"/></clipPath></defs><g clip-path="url(#clip0)" transform="translate(-55 -137)"><path d="M12.5 11.4583C11.1979 11.4583 10.1562 10.4167 10.1562 9.11458 10.1562 7.8125 11.1979 6.77083 12.5 6.77083 13.8021 6.77083 14.8437 7.8125 14.8437 9.11458 14.8437 10.4167 13.8021 11.4583 12.5 11.4583ZM12.5 3.64583C10.7031 3.64583 9.01042 4.53125 7.99479 6.04167 6.97917 7.52604 6.77083 9.42708 7.42187 11.1198L9.89583 16.5885 12.0312 21.0677C12.1094 21.25 12.2917 21.3542 12.5 21.3542 12.7083 21.3542 12.8906 21.25 12.9687 21.0677L15.1042 16.5885 17.5781 11.1198C18.2292 9.42708 18.0208 7.52604 17.0052 6.04167 15.9896 4.53125 14.2969 3.64583 12.5 3.64583Z" fill="#203864" transform="matrix(1 0 0 1.16 55 137)"/></g></svg>