<svg width="41" height="41" xmlns="http://www.w3.org/2000/svg" xmlns:xlink="http://www.w3.org/1999/xlink" xml:space="preserve" overflow="hidden"><defs><clipPath id="clip0"><rect x="1057" y="346" width="41" height="41"/></clipPath></defs><g clip-path="url(#clip0)" transform="translate(-1057 -346)"><path d="M1088.13 365.859C1086.64 367.397 1085.23 368.379 1082.16 368.721 1082.97 367.909 1083.91 367.098 1084.72 366.116 1085.06 365.731 1085.7 364.877 1085.7 364.834 1086.43 363.639 1086.85 362.272 1086.85 360.777L1086.85 355.225 1089.84 355.225 1089.84 361.717C1089.89 361.802 1089.97 363.938 1088.13 365.859ZM1066.91 365.859C1065.03 363.938 1065.11 361.802 1065.11 361.717L1065.11 355.182 1068.1 355.182 1068.1 360.734C1068.1 362.229 1068.53 363.596 1069.26 364.792 1069.26 364.834 1069.9 365.731 1070.24 366.073 1071.09 367.055 1071.99 367.867 1072.8 368.678 1069.81 368.336 1068.36 367.354 1066.91 365.859ZM1092.45 361.589 1092.45 352.62 1086.9 352.62 1086.9 349.63 1077.5 349.63 1068.1 349.63 1068.1 352.62 1062.55 352.62 1062.55 361.546C1062.55 361.973 1062.55 364.92 1064.99 367.525 1067.34 370.002 1070.2 371.283 1075.19 371.369 1075.58 372.009 1075.79 372.735 1075.79 373.504L1075.79 379.056 1073.66 379.056C1072.72 379.056 1071.95 379.825 1071.95 380.765L1069.81 380.765C1068.87 380.765 1068.1 381.533 1068.1 382.473L1068.1 383.327 1086.9 383.327 1086.9 382.473C1086.9 381.533 1086.13 380.765 1085.19 380.765L1083.05 380.765C1083.05 379.825 1082.28 379.056 1081.34 379.056L1079.21 379.056 1079.21 373.547C1079.21 372.778 1079.42 372.052 1079.81 371.411 1084.8 371.326 1087.66 370.002 1090.01 367.568 1092.45 365.005 1092.45 362.016 1092.45 361.589Z" fill="#203864"/></g></svg>